<?xml version="1.0" standalone="no"?>
<!DOCTYPE svg PUBLIC "-//W3C//DTD SVG 20010904//EN"
 "http://www.w3.org/TR/2001/REC-SVG-20010904/DTD/svg10.dtd">
<svg version="1.0" xmlns="http://www.w3.org/2000/svg"
 width="992.000000pt" height="992.000000pt" viewBox="0 0 992.000000 992.000000"
 preserveAspectRatio="xMidYMid meet">
<metadata>
Created by potrace 1.11, written by Peter Selinger 2001-2013
</metadata>
<g transform="translate(0.000000,992.000000) scale(0.100000,-0.100000)"
fill="#000000" stroke="none">
<path d="M4859 9776 c-2 -2 -22 -7 -44 -10 -22 -4 -62 -14 -90 -23 -53 -17
-354 -155 -391 -180 -13 -8 -27 -15 -31 -15 -4 0 -73 -31 -152 -69 -79 -38
-148 -69 -152 -69 -5 0 -9 -4 -9 -10 0 -5 -6 -10 -14 -10 -7 0 -55 -21 -107
-46 -107 -53 -242 -117 -249 -119 -9 -2 -243 -116 -281 -136 -20 -10 -44 -19
-53 -19 -9 0 -16 -4 -16 -9 0 -5 -15 -14 -32 -22 -18 -7 -81 -36 -140 -65 -60
-29 -108 -50 -108 -46 0 4 -4 2 -8 -4 -5 -9 -89 -53 -112 -59 -3 0 -52 -23
-110 -51 -58 -28 -120 -57 -137 -65 -18 -7 -33 -17 -33 -21 0 -5 -7 -8 -15 -8
-8 0 -40 -13 -72 -29 -58 -29 -212 -103 -418 -201 -60 -29 -150 -72 -199 -96
-49 -24 -95 -44 -103 -44 -7 0 -13 -4 -13 -10 0 -5 -4 -10 -9 -10 -24 0 -591
-279 -591 -291 0 -5 -5 -9 -10 -9 -18 0 -122 -98 -173 -162 -18 -22 -81 -127
-83 -138 0 -3 -8 -22 -17 -42 -10 -21 -17 -44 -17 -52 0 -8 -5 -18 -11 -21 -6
-4 -8 -13 -5 -20 2 -7 2 -16 -2 -19 -6 -7 -6 -8 -17 -71 -4 -22 -8 -42 -10
-45 -5 -9 -76 -319 -78 -340 -1 -11 -4 -20 -7 -20 -3 0 -6 -10 -7 -23 -2 -23
-10 -62 -13 -62 -2 0 -4 -12 -14 -60 -3 -16 -19 -88 -36 -160 -43 -183 -62
-267 -65 -290 -2 -11 -11 -46 -19 -78 -9 -32 -14 -63 -10 -68 3 -5 1 -9 -4 -9
-5 0 -9 -6 -10 -12 -1 -21 -12 -72 -18 -88 -4 -8 -8 -26 -10 -40 -1 -14 -5
-34 -7 -45 -3 -11 -13 -51 -22 -90 -9 -38 -18 -78 -20 -88 -2 -10 -6 -26 -9
-35 -3 -9 -7 -28 -10 -42 -3 -14 -17 -74 -31 -135 -14 -60 -27 -119 -29 -130
-3 -11 -12 -51 -21 -90 -9 -38 -19 -81 -21 -95 -3 -14 -8 -34 -11 -45 -4 -11
-8 -25 -9 -31 -13 -73 -99 -434 -106 -448 -7 -14 -7 -16 2 -11 9 6 9 3 1 -12
-5 -11 -12 -31 -15 -44 -10 -47 -15 -71 -20 -87 -3 -9 -8 -32 -11 -51 -3 -19
-8 -37 -10 -41 -2 -4 -7 -20 -9 -36 -7 -38 -10 -51 -36 -164 -12 -52 -23 -103
-25 -113 -2 -9 -6 -20 -8 -25 -3 -4 -8 -23 -11 -42 -8 -52 -13 -71 -27 -120
-7 -25 -12 -48 -11 -51 0 -3 -4 -23 -9 -45 -41 -165 -48 -220 -45 -319 4 -100
24 -199 54 -265 8 -19 16 -37 17 -40 2 -3 6 -15 10 -28 4 -12 10 -22 14 -22 3
0 12 -12 18 -28 12 -24 128 -175 189 -244 13 -16 22 -28 19 -28 -2 0 8 -13 23
-28 15 -16 36 -41 47 -56 11 -16 25 -34 31 -40 7 -7 43 -52 82 -102 39 -49 79
-98 89 -109 10 -11 40 -48 67 -83 27 -34 53 -62 58 -62 5 0 6 -5 3 -10 -3 -5
-1 -10 4 -10 6 0 11 -5 11 -11 0 -7 8 -19 18 -28 10 -9 36 -38 57 -66 22 -27
43 -51 48 -53 4 -2 7 -10 7 -17 0 -7 3 -15 8 -17 4 -1 36 -39 72 -83 36 -44
67 -82 70 -85 3 -3 39 -48 80 -100 41 -52 82 -102 92 -111 10 -9 18 -20 18
-23 0 -6 75 -102 91 -116 3 -3 45 -54 93 -115 99 -125 146 -182 164 -201 6 -7
12 -15 12 -19 0 -3 10 -16 23 -29 30 -31 57 -65 57 -71 0 -3 8 -13 18 -23 9
-10 31 -35 47 -56 17 -21 35 -44 40 -50 6 -6 30 -37 54 -68 24 -32 47 -58 52
-58 5 0 9 -6 9 -14 0 -8 4 -16 8 -18 4 -1 107 -127 227 -278 121 -151 228
-282 237 -291 10 -9 18 -21 18 -27 0 -6 4 -12 8 -14 4 -2 34 -37 67 -78 63
-80 178 -200 191 -200 4 0 17 -9 28 -19 51 -47 205 -110 326 -132 25 -4 923
-6 1995 -4 l1950 3 93 26 c51 14 103 31 115 38 12 7 25 11 30 10 4 -1 7 2 7 6
0 4 16 14 35 21 19 7 35 17 35 22 0 5 5 9 11 9 24 0 152 117 204 185 29 40 43
57 78 98 10 12 31 37 45 56 98 123 139 174 165 202 9 10 17 24 17 29 0 6 4 10
8 10 5 0 23 19 40 43 17 23 42 54 56 69 14 15 26 30 26 33 0 6 13 23 41 53 13
14 104 128 144 180 6 7 17 21 25 30 13 15 32 37 107 132 97 122 150 186 160
193 7 4 13 14 13 22 0 7 4 15 8 17 4 2 33 35 64 73 30 39 64 80 74 92 11 12
29 35 41 50 12 15 30 38 40 49 10 12 29 36 43 54 14 18 31 39 37 46 7 7 13 15
13 17 0 5 40 54 82 100 15 16 30 38 33 48 4 11 10 19 14 19 4 0 41 43 82 96
41 53 81 104 89 113 9 9 52 61 95 116 44 55 85 105 90 111 6 7 21 26 35 44 14
18 30 37 35 44 6 6 39 47 74 91 35 44 68 82 72 83 5 2 9 8 9 14 0 5 6 15 13
22 6 7 23 28 37 46 14 18 30 38 36 45 7 6 58 69 114 141 56 71 109 134 116
140 8 6 14 16 14 21 0 5 11 19 23 32 35 32 121 210 132 271 3 19 10 53 15 75
21 90 5 249 -45 460 -26 110 -49 209 -51 220 -4 25 -42 189 -54 235 -12 47
-53 221 -57 240 -9 55 -17 88 -26 110 -3 8 -5 22 -5 30 -1 8 -8 44 -17 80 -9
36 -19 76 -21 90 -3 14 -14 61 -24 105 -41 173 -80 341 -84 365 -3 14 -14 62
-25 107 -11 45 -22 92 -25 105 -2 13 -21 93 -41 178 -20 85 -39 166 -41 180
-3 14 -12 52 -21 85 -8 33 -17 74 -20 90 -2 17 -9 48 -15 70 -6 22 -13 49 -15
60 -2 11 -10 47 -18 80 -8 33 -16 71 -19 85 -3 14 -15 66 -27 115 -11 50 -22
97 -24 105 -2 8 -9 38 -15 65 -15 63 -22 96 -25 115 -1 8 -5 22 -8 30 -3 8 -8
26 -10 40 -6 27 -8 39 -32 145 -16 67 -25 108 -31 130 -1 6 -5 24 -8 40 -3 17
-10 45 -15 63 -5 18 -10 33 -9 35 0 1 -5 22 -12 47 -7 25 -13 50 -15 55 -11
51 -78 178 -124 235 -73 92 -187 185 -268 221 -18 8 -33 17 -33 21 0 5 -6 8
-13 8 -8 0 -52 19 -98 41 -129 63 -229 109 -233 106 -2 -1 -12 6 -22 15 -11 9
-22 17 -27 17 -8 0 -143 63 -344 161 -67 33 -128 61 -135 62 -7 2 -15 5 -18 8
-9 9 -124 63 -140 66 -8 2 -16 8 -18 13 -2 6 -10 11 -17 11 -7 0 -30 9 -52 20
-34 18 -170 83 -433 207 -52 25 -135 64 -185 88 -49 23 -121 58 -160 76 -38
18 -73 38 -77 43 -4 6 -8 8 -8 3 0 -4 -15 0 -32 10 -18 9 -35 18 -38 18 -3 1
-50 23 -105 49 -165 80 -310 149 -315 151 -6 2 -155 73 -325 156 -60 29 -112
53 -115 54 -5 1 -78 36 -272 129 -64 31 -122 56 -127 56 -6 0 -11 5 -11 11 0
5 -4 7 -10 4 -5 -3 -10 -1 -10 6 0 7 -3 9 -7 6 -3 -4 -11 -3 -17 2 -6 5 -31
15 -56 22 -25 7 -49 14 -55 16 -54 17 -282 32 -296 19z"/>
</g>
</svg>
