<?xml version="1.0" encoding="UTF-8" standalone="no"?>
<svg
   id="Layer_1"
   data-name="Layer 1"
   viewBox="0 0 791.3 241.14"
   version="1.1"
   sodipodi:docname="kuby-logotype-inverted.svg"
   inkscape:version="1.1.2 (b8e25be8, 2022-02-05)"
   xmlns:inkscape="http://www.inkscape.org/namespaces/inkscape"
   xmlns:sodipodi="http://sodipodi.sourceforge.net/DTD/sodipodi-0.dtd"
   xmlns="http://www.w3.org/2000/svg"
   xmlns:svg="http://www.w3.org/2000/svg">
  <sodipodi:namedview
     id="namedview188"
     pagecolor="#ffffff"
     bordercolor="#666666"
     borderopacity="1.0"
     inkscape:pageshadow="2"
     inkscape:pageopacity="0.0"
     inkscape:pagecheckerboard="0"
     showgrid="false"
     inkscape:zoom="1.4444585"
     inkscape:cx="318.80459"
     inkscape:cy="129.11413"
     inkscape:window-width="1792"
     inkscape:window-height="1067"
     inkscape:window-x="0"
     inkscape:window-y="25"
     inkscape:window-maximized="0"
     inkscape:current-layer="Layer_1" />
  <defs
     id="defs11">
    <style
       id="style9">.cls-1,.cls-3{fill:#fff;}.cls-2{fill:#c00;}.cls-3{font-size:180px;font-family:LequireDEMO, Lequire DEMO;}</style>
  </defs>
  <path
     class="cls-1"
     d="M82.09,244.93a19.46,19.46,0,0,1-15.36-7.43L8.92,165.66a19.38,19.38,0,0,1-3.8-16.85L25.77,59.13A19.52,19.52,0,0,1,36.5,45.75l83.57-40a19.62,19.62,0,0,1,17.18,0l83.57,39.8A19.6,19.6,0,0,1,231.56,59l20.64,89.69a19.91,19.91,0,0,1-3.8,16.84l-57.8,71.85a20,20,0,0,1-15.36,7.43l-93.15.16Z"
     transform="translate(-4.55 -3.8)"
     id="path13" />
  <path
     class="cls-2"
     d="M192.74,137.41a65.47,65.47,0,0,0-1.15-23.28,68.21,68.21,0,0,0-9.25-21.64l-6.77-8.75a78.07,78.07,0,0,0-6.78-6.28,66,66,0,0,0-34.51-13.71l-11.23-.16a82.71,82.71,0,0,0-8.92,1.32,63.72,63.72,0,0,0-32.71,18.5L75,92a5.64,5.64,0,0,0-.82,1.33,64.28,64.28,0,0,0-9.25,43.6l2.48,10.9A65.34,65.34,0,0,0,89,178.87a67.42,67.42,0,0,0,7.1,4.79l10.08,5a64.47,64.47,0,0,0,23.12,4.3,60.24,60.24,0,0,0,14.37-1.65,73.79,73.79,0,0,0,8.59-2.48l9.91-5a65.51,65.51,0,0,0,28.74-36.17Zm-57-3-7.26,3.47-7.27-3.47-1.82-7.76,5-6.28h8.09l4.95,6.28-1.65,7.76Zm43.11-17.18A52.34,52.34,0,0,1,180,134l-25.27-7.27a4.47,4.47,0,0,1-3.14-5.29,3.81,3.81,0,0,1,1-1.81l20-18a52.89,52.89,0,0,1,6.28,15.69Zm-14.2-25.6L143,107a4.39,4.39,0,0,1-5.78-1,3.63,3.63,0,0,1-.83-1.81L134.94,77.3a50.18,50.18,0,0,1,29.73,14.36Zm-47.9-13.54c1.82-.33,3.47-.66,5.28-1l-1.48,26.43a4.52,4.52,0,0,1-4.46,4.29,3.81,3.81,0,0,1-2-.5l-22-15.69a50.38,50.38,0,0,1,24.61-13.54ZM84.23,101.57l19.66,17.51a4.4,4.4,0,0,1,.49,6.11,3.24,3.24,0,0,1-2,1.32L76.8,134a53.23,53.23,0,0,1,7.43-32.38Zm-4.46,44.76L106,141.87a4.46,4.46,0,0,1,4.63,3.47,4.75,4.75,0,0,1-.17,2.64h0l-10.07,24.28a52.07,52.07,0,0,1-20.65-25.93Zm60.29,32.87a53.7,53.7,0,0,1-11.56,1.32,56,56,0,0,1-16.69-2.64l13-23.62a4.34,4.34,0,0,1,5.29-1.16,7.26,7.26,0,0,1,2,1.82h0l12.72,23c-1.49.49-3.14.82-4.79,1.32Zm32.2-23a52.45,52.45,0,0,1-15.85,16L146,147.32a4.45,4.45,0,0,1,2.31-5.12,5.33,5.33,0,0,1,2.32-.49l26.42,4.46a33.18,33.18,0,0,1-4.79,10.07Z"
     transform="translate(-4.55 -3.8)"
     id="path15" />
  <path
     class="cls-2"
     d="M120.81,64.07S124.5,32,144.42,21.45l4.64,2.89S132.31,35,136.69,67.05Z"
     transform="translate(-4.55 -3.8)"
     id="path17" />
  <rect
     class="cls-2"
     x="138.03"
     y="57.41"
     width="3.58"
     height="3.58"
     transform="translate(-9.27 8.89) rotate(-5.11)"
     id="rect19" />
  <rect
     class="cls-2"
     x="138.16"
     y="49.58"
     width="3.58"
     height="3.58"
     transform="translate(-0.72 -13.23) rotate(3.91)"
     id="rect21" />
  <rect
     class="cls-2"
     x="139.42"
     y="41.86"
     width="3.58"
     height="3.58"
     transform="translate(10.23 -36.72) rotate(14.02)"
     id="rect23" />
  <rect
     class="cls-2"
     x="142.19"
     y="34.77"
     width="3.58"
     height="3.58"
     transform="translate(24.16 -60.94) rotate(24.86)"
     id="rect25" />
  <rect
     class="cls-2"
     x="146.25"
     y="28.55"
     width="3.58"
     height="3.58"
     transform="translate(51.55 -93.39) rotate(40.95)"
     id="rect27" />
  <rect
     class="cls-2"
     x="115.83"
     y="56.78"
     width="3.58"
     height="3.58"
     transform="translate(8.14 -24.32) rotate(10.54)"
     id="rect29" />
  <rect
     class="cls-2"
     x="117.65"
     y="48.87"
     width="3.58"
     height="3.58"
     transform="translate(14.38 -35.17) rotate(16.24)"
     id="rect31" />
  <rect
     class="cls-2"
     x="120.53"
     y="41.15"
     width="3.58"
     height="3.58"
     transform="translate(24.83 -51.24) rotate(24.86)"
     id="rect33" />
  <rect
     class="cls-2"
     x="123.97"
     y="33.72"
     width="3.58"
     height="3.58"
     transform="translate(30.05 -61.92) rotate(30)"
     id="rect35" />
  <rect
     class="cls-2"
     x="128.38"
     y="26.99"
     width="3.58"
     height="3.58"
     transform="translate(39.84 -77.07) rotate(37.49)"
     id="rect37" />
  <rect
     class="cls-2"
     x="134.01"
     y="20.96"
     width="3.58"
     height="3.58"
     transform="translate(51.31 -93.16) rotate(45)"
     id="rect39" />
  <path
     class="cls-2"
     d="M173.39,83.75s27.28-17.26,48-8.37l.67,5.42s-18.8-6.36-41,17.19Z"
     transform="translate(-4.55 -3.8)"
     id="path41" />
  <rect
     class="cls-2"
     x="187.33"
     y="93.7"
     width="3.58"
     height="3.58"
     transform="translate(121.9 -110.69) rotate(46)"
     id="rect43" />
  <rect
     class="cls-2"
     x="193.51"
     y="88.89"
     width="3.58"
     height="3.58"
     transform="translate(153.1 -125.13) rotate(55.03)"
     id="rect45" />
  <rect
     class="cls-2"
     x="200.31"
     y="85.02"
     width="3.58"
     height="3.58"
     transform="translate(191.34 -136.86) rotate(65.14)"
     id="rect47" />
  <rect
     class="cls-2"
     x="207.57"
     y="82.73"
     width="3.58"
     height="3.58"
     transform="translate(236.06 -142.88) rotate(75.97)"
     id="rect49" />
  <rect
     class="cls-2"
     x="214.95"
     y="81.98"
     width="3.58"
     height="3.58"
     transform="matrix(-0.04, 1, -1, -0.04, 303.7, -133.62)"
     id="rect51" />
  <rect
     class="cls-2"
     x="173.88"
     y="76.03"
     width="3.58"
     height="3.58"
     transform="translate(156.19 -117.54) rotate(61.65)"
     id="rect53" />
  <rect
     class="cls-2"
     x="181.19"
     y="72.48"
     width="3.58"
     height="3.58"
     transform="translate(176.5 -126.99) rotate(67.35)"
     id="rect55" />
  <rect
     class="cls-2"
     x="189"
     y="69.87"
     width="3.58"
     height="3.58"
     transform="translate(209.52 -134.61) rotate(75.97)"
     id="rect57" />
  <rect
     class="cls-2"
     x="196.95"
     y="67.89"
     width="3.58"
     height="3.58"
     transform="translate(232.33 -141.24) rotate(81.11)"
     id="rect59" />
  <rect
     class="cls-2"
     x="204.95"
     y="67.09"
     width="3.58"
     height="3.58"
     transform="translate(266 -143.28) rotate(88.6)"
     id="rect61" />
  <rect
     class="cls-2"
     x="213.18"
     y="67.69"
     width="3.58"
     height="3.58"
     transform="translate(302.4 -140.67) rotate(96.11)"
     id="rect63" />
  <path
     class="cls-2"
     d="M192.71,136.15s30.22,11.37,35.61,33.26l-3.93,3.8s-6.25-18.83-38.42-22.38Z"
     transform="translate(-4.55 -3.8)"
     id="path65" />
  <rect
     class="cls-2"
     x="191.04"
     y="153.98"
     width="3.58"
     height="3.58"
     transform="translate(372.16 -14.25) rotate(98.95)"
     id="rect67" />
  <rect
     class="cls-2"
     x="198.6"
     y="156.01"
     width="3.58"
     height="3.58"
     transform="translate(407.78 12.1) rotate(107.98)"
     id="rect69" />
  <rect
     class="cls-2"
     x="205.78"
     y="159.12"
     width="3.58"
     height="3.58"
     transform="translate(442.7 49.74) rotate(118.09)"
     id="rect71" />
  <rect
     class="cls-2"
     x="211.98"
     y="163.52"
     width="3.58"
     height="3.58"
     transform="translate(472.13 99.07) rotate(128.92)"
     id="rect73" />
  <rect
     class="cls-2"
     x="217.03"
     y="168.97"
     width="3.58"
     height="3.58"
     transform="translate(491.45 181.38) rotate(145.01)"
     id="rect75" />
  <rect
     class="cls-2"
     x="197.04"
     y="132.6"
     width="3.58"
     height="3.58"
     transform="translate(399.24 5.77) rotate(114.6)"
     id="rect77" />
  <rect
     class="cls-2"
     x="204.27"
     y="136.29"
     width="3.58"
     height="3.58"
     transform="translate(424.69 26.05) rotate(120.3)"
     id="rect79" />
  <rect
     class="cls-2"
     x="211.06"
     y="140.96"
     width="3.58"
     height="3.58"
     transform="translate(453.08 63.05) rotate(128.92)"
     id="rect81" />
  <rect
     class="cls-2"
     x="217.43"
     y="146.11"
     width="3.58"
     height="3.58"
     transform="translate(473.4 89.43) rotate(134.07)"
     id="rect83" />
  <rect
     class="cls-2"
     x="222.89"
     y="152.01"
     width="3.58"
     height="3.58"
     transform="translate(491.72 130.75) rotate(141.55)"
     id="rect85" />
  <rect
     class="cls-2"
     x="227.37"
     y="158.94"
     width="3.58"
     height="3.58"
     transform="translate(503.79 177) rotate(149.07)"
     id="rect87" />
  <path
     class="cls-2"
     d="M162.09,183.15s9.31,30.91-4.81,48.49l-5.4-.82s11.17-16.4-5.55-44.11Z"
     transform="translate(-4.55 -3.8)"
     id="path89" />
  <rect
     class="cls-2"
     x="144.78"
     y="193.37"
     width="3.58"
     height="3.58"
     transform="translate(363.83 293.17) rotate(151.56)"
     id="rect91" />
  <rect
     class="cls-2"
     x="147.76"
     y="200.61"
     width="3.58"
     height="3.58"
     transform="translate(353.32 339.78) rotate(160.59)"
     id="rect93" />
  <rect
     class="cls-2"
     x="149.65"
     y="208.2"
     width="3.58"
     height="3.58"
     transform="translate(330.29 388.93) rotate(170.7)"
     id="rect95" />
  <rect
     class="cls-2"
     x="149.92"
     y="215.8"
     width="3.58"
     height="3.58"
     transform="translate(292.99 435.35) rotate(-178.47)"
     id="rect97" />
  <rect
     class="cls-2"
     x="148.66"
     y="223.12"
     width="3.58"
     height="3.58"
     transform="translate(221.21 481) rotate(-162.38)"
     id="rect99" />
  <rect
     class="cls-2"
     x="165.41"
     y="185.15"
     width="3.58"
     height="3.58"
     transform="translate(367.08 328.43) rotate(167.21)"
     id="rect101" />
  <rect
     class="cls-2"
     x="166.87"
     y="193.14"
     width="3.58"
     height="3.58"
     transform="translate(355.54 363.74) rotate(172.91)"
     id="rect103" />
  <rect
     class="cls-2"
     x="167.28"
     y="201.36"
     width="3.58"
     height="3.58"
     transform="translate(328.1 406.95) rotate(-178.47)"
     id="rect105" />
  <rect
     class="cls-2"
     x="167.06"
     y="209.55"
     width="3.58"
     height="3.58"
     transform="translate(307.45 437.07) rotate(-173.33)"
     id="rect107" />
  <rect
     class="cls-2"
     x="165.69"
     y="217.48"
     width="3.58"
     height="3.58"
     transform="translate(271.68 469.04) rotate(-165.84)"
     id="rect109" />
  <rect
     class="cls-2"
     x="162.9"
     y="225.25"
     width="3.58"
     height="3.58"
     transform="translate(229.35 495.04) rotate(-158.33)"
     id="rect111" />
  <path
     class="cls-2"
     d="M107.9,188.6s-17.66,27-40.2,27.54l-2.85-4.65s19.74-2,30.17-32.66Z"
     transform="translate(-4.55 -3.8)"
     id="path113" />
  <rect
     class="cls-2"
     x="86.93"
     y="182.67"
     width="3.58"
     height="3.58"
     transform="translate(99.18 384.78) rotate(-158.52)"
     id="rect115" />
  <rect
     class="cls-2"
     x="83.31"
     y="189.61"
     width="3.58"
     height="3.58"
     transform="matrix(-0.86, -0.51, 0.51, -0.86, 56.72, 395.7)"
     id="rect117" />
  <rect
     class="cls-2"
     x="78.72"
     y="195.95"
     width="3.58"
     height="3.58"
     transform="translate(8.36 396.45) rotate(-139.39)"
     id="rect119" />
  <rect
     class="cls-2"
     x="73.07"
     y="201.04"
     width="3.58"
     height="3.58"
     transform="translate(-41.65 383.99) rotate(-128.55)"
     id="rect121" />
  <rect
     class="cls-2"
     x="66.66"
     y="204.79"
     width="3.58"
     height="3.58"
     transform="translate(-100.84 344.97) rotate(-112.47)"
     id="rect123" />
  <rect
     class="cls-2"
     x="106.5"
     y="193.16"
     width="3.58"
     height="3.58"
     transform="translate(72.41 411.95) rotate(-142.87)"
     id="rect125" />
  <rect
     class="cls-2"
     x="101.33"
     y="199.42"
     width="3.58"
     height="3.58"
     transform="translate(37.42 415.08) rotate(-137.17)"
     id="rect127" />
  <rect
     class="cls-2"
     x="95.3"
     y="205.03"
     width="3.58"
     height="3.58"
     transform="translate(-8.7 407.85) rotate(-128.55)"
     id="rect129" />
  <rect
     class="cls-2"
     x="88.89"
     y="210.14"
     width="3.58"
     height="3.58"
     transform="matrix(-0.55, -0.83, 0.83, -0.55, -40.84, 400.52)"
     id="rect131" />
  <rect
     class="cls-2"
     x="81.94"
     y="214.19"
     width="3.58"
     height="3.58"
     transform="translate(-78.45 381.91) rotate(-115.93)"
     id="rect133" />
  <rect
     class="cls-2"
     x="74.21"
     y="217.06"
     width="3.58"
     height="3.58"
     transform="translate(-112.2 356.28) rotate(-108.41)"
     id="rect135" />
  <path
     class="cls-2"
     d="M68.73,150.71s-32.24,1.79-46-16.07l2.06-5.06s13.32,14.71,44.18,5Z"
     transform="translate(-4.55 -3.8)"
     id="path137" />
  <rect
     class="cls-2"
     x="58.92"
     y="131.01"
     width="3.58"
     height="3.58"
     transform="translate(-56.66 221.7) rotate(-104.84)"
     id="rect139" />
  <rect
     class="cls-2"
     x="51.18"
     y="132.21"
     width="3.58"
     height="3.58"
     transform="translate(-79.52 196.48) rotate(-95.82)"
     id="rect141" />
  <rect
     class="cls-2"
     x="43.36"
     y="132.27"
     width="3.58"
     height="3.58"
     transform="translate(-96.46 165.24) rotate(-85.71)"
     id="rect143" />
  <rect
     class="cls-2"
     x="35.91"
     y="130.73"
     width="3.58"
     height="3.58"
     transform="translate(-104.62 130.53) rotate(-74.87)"
     id="rect145" />
  <rect
     class="cls-2"
     x="29.09"
     y="127.79"
     width="3.58"
     height="3.58"
     transform="matrix(0.52, -0.86, 0.86, 0.52, -100.49, 85.04)"
     id="rect147" />
  <rect
     class="cls-2"
     x="62.06"
     y="153"
     width="3.58"
     height="3.58"
     transform="translate(-96.38 212.65) rotate(-89.19)"
     id="rect149" />
  <rect
     class="cls-2"
     x="53.95"
     y="152.54"
     width="3.58"
     height="3.58"
     transform="translate(-108.46 188.43) rotate(-83.5)"
     id="rect151" />
  <rect
     class="cls-2"
     x="45.85"
     y="151.01"
     width="3.58"
     height="3.58"
     transform="translate(-116.84 155.12) rotate(-74.87)"
     id="rect153" />
  <rect
     class="cls-2"
     x="37.95"
     y="148.87"
     width="3.58"
     height="3.58"
     transform="matrix(0.35, -0.94, 0.94, 0.35, -119.91, 131.95)"
     id="rect155" />
  <rect
     class="cls-2"
     x="30.57"
     y="145.67"
     width="3.58"
     height="3.58"
     transform="translate(-117.76 103.63) rotate(-62.25)"
     id="rect157" />
  <rect
     class="cls-2"
     x="23.67"
     y="141.14"
     width="3.58"
     height="3.58"
     transform="translate(-110.49 77.39) rotate(-54.73)"
     id="rect159" />
  <path
     class="cls-2"
     d="M73.6,95.61S51,72.58,55.3,50.45l5.16-1.79S58.2,68.37,85.89,85.12Z"
     transform="translate(-4.55 -3.8)"
     id="path161" />
  <rect
     class="cls-2"
     x="79.96"
     y="75.97"
     width="3.58"
     height="3.58"
     transform="translate(-32.91 98.56) rotate(-56.16)"
     id="rect163" />
  <rect
     class="cls-2"
     x="73.96"
     y="70.95"
     width="3.58"
     height="3.58"
     transform="translate(-33.65 74.98) rotate(-47.14)"
     id="rect165" />
  <rect
     class="cls-2"
     x="68.75"
     y="65.11"
     width="3.58"
     height="3.58"
     transform="translate(-30.61 52.17) rotate(-37.03)"
     id="rect167" />
  <rect
     class="cls-2"
     x="64.98"
     y="58.5"
     width="3.58"
     height="3.58"
     transform="translate(-24.31 31.86) rotate(-26.19)"
     id="rect169" />
  <rect
     class="cls-2"
     x="62.69"
     y="51.44"
     width="3.58"
     height="3.58"
     transform="translate(-12.89 8.34) rotate(-10.1)"
     id="rect171" />
  <rect
     class="cls-2"
     x="65.52"
     y="92.84"
     width="3.58"
     height="3.58"
     transform="translate(-49.89 62.61) rotate(-40.51)"
     id="rect173" />
  <rect
     class="cls-2"
     x="60.52"
     y="86.45"
     width="3.58"
     height="3.58"
     transform="matrix(0.82, -0.57, 0.57, 0.82, -43.78, 47.57)"
     id="rect175" />
  <rect
     class="cls-2"
     x="56.32"
     y="79.36"
     width="3.58"
     height="3.58"
     transform="translate(-34.4 30.18) rotate(-26.19)"
     id="rect177" />
  <rect
     class="cls-2"
     x="52.71"
     y="72.01"
     width="3.58"
     height="3.58"
     transform="translate(-27.42 20.7) rotate(-21.05)"
     id="rect179" />
  <rect
     class="cls-2"
     x="50.24"
     y="64.35"
     width="3.58"
     height="3.58"
     transform="translate(-18.61 10.25) rotate(-13.56)"
     id="rect181" />
  <rect
     class="cls-2"
     x="49.09"
     y="56.18"
     width="3.58"
     height="3.58"
     transform="translate(-10.38 1.89) rotate(-6.05)"
     id="rect183" />
  <g
     aria-label="kuby"
     transform="translate(295.02 187.45)"
     id="text185"
     class="cls-3"
     style="font-size:180px;font-family:LequireDEMO, 'Lequire DEMO';fill:#ffffff">
    <path
       d="M 13.68,-123.66 V -2.34 c 0,1.44 0.9,2.34 2.34,2.34 h 16.92 c 1.44,0 2.34,-0.9 2.34,-2.34 v -29.52 c 0,-3.06 1.26,-6.66 3.24,-9 l 66.42,-83.34 c 0.9,-1.08 0.54,-1.8 -0.9,-1.8 H 83.52 c -1.44,0 -2.88,0.72 -3.78,1.8 l -41.22,51.48 c -0.9,1.08 -1.62,1.44 -2.16,1.44 -0.72,0 -1.08,-0.72 -1.08,-2.52 v -49.86 c 0,-1.44 -0.9,-2.34 -2.34,-2.34 H 16.02 c -1.44,0 -2.34,0.9 -2.34,2.34 z M 64.8,-41.94 95.4,-1.8 c 0.9,1.08 2.34,1.8 3.78,1.8 h 21.24 c 1.44,0 1.8,-0.72 1.08,-1.8 L 77.76,-58.14 c -0.72,-1.08 -1.98,-1.08 -2.88,0 l -9.9,12.42 c -0.9,1.08 -1.08,2.7 -0.18,3.78 z"
       id="path1733" />
    <path
       d="m 141.255,-45.54 c 1.08,33.12 26.1,49.86 50.94,49.86 25.56,0 50.94,-17.46 50.94,-52.2 v -75.78 c 0,-1.44 -1.08,-2.34 -2.34,-2.34 h -16.92 c -1.44,0 -2.34,0.9 -2.34,2.34 v 75.78 c 0,19.62 -14.58,29.52 -29.34,29.52 -14.04,0 -28.26,-9.18 -29.34,-27.18 -0.18,-1.44 -0.9,-2.34 -2.34,-2.34 h -16.92 c -1.44,0 -2.34,0.9 -2.34,2.34 z m 0,-24.3 c 0,1.44 0.9,2.34 2.34,2.34 h 16.92 c 1.44,0 2.34,-0.9 2.34,-2.34 v -53.82 c 0,-1.44 -0.9,-2.34 -2.34,-2.34 h -16.92 c -1.44,0 -2.34,0.9 -2.34,2.34 z"
       id="path1735" />
    <path
       d="m 270.90281,0 h 51.48 c 41.4,0 50.22,-47.52 26.28,-67.68 -2.34,-1.98 -2.7,-4.68 -1.26,-7.2 11.16,-19.44 0.9,-47.88 -30.06,-50.94 -1.98,-0.18 -5.04,-0.18 -10.26,-0.18 h -36.18 c -1.44,0 -2.34,0.9 -2.34,2.34 V -2.34 c 0,1.44 0.9,2.34 2.34,2.34 z m 19.26,-25.2 v -75.78 c 0,-3.06 1.98,-5.04 5.04,-5.04 h 17.1 c 20.7,0 22.5,24.48 5.4,28.8 -1.98,0.54 -5.04,0.54 -10.08,0.54 h -0.72 c -1.26,0 -2.34,0.9 -2.34,2.34 v 15.66 c 0,1.26 1.08,2.34 2.34,2.34 h 15.48 c 22.86,0 22.86,36.18 0,36.18 h -27.18 c -3.06,0 -5.04,-1.98 -5.04,-5.04 z"
       id="path1737" />
    <path
       d="m 379.51312,-124.02 38.16001,69.48 c 1.44,2.7 2.33999,6.48 2.33999,9.54 v 42.66 c 0,1.44 0.9,2.34 2.34,2.34 h 16.92 c 1.44,0 2.34,-0.9 2.34,-2.34 v -48.6 c 0,-1.44 -0.54,-3.24 -1.08,-4.32 l -37.8,-68.76 c -0.54,-1.08 -1.98,-1.98 -3.41999,-1.98 h -18.54001 c -1.44,0 -1.8,0.9 -1.26,1.98 z m 58.14,42.66 9,15.84 c 0.72001,1.26 1.62,1.26 2.34,0 l 33.12,-58.5 c 0.72,-1.26 0.18001,-1.98 -1.26,-1.98 h -18.53999 c -1.26,0 -2.88,0.9 -3.42001,1.98 l -21.24,38.7 c -0.71999,1.26 -0.54,2.88 0,3.96 z"
       id="path1739" />
  </g>
</svg>
