<svg id="Layer_1" data-name="Layer 1" xmlns="http://www.w3.org/2000/svg" viewBox="0 0 248.15 241.14"><defs><style>.cls-1{fill:#c00;}.cls-2{fill:#fff;}</style></defs><path class="cls-1" d="M82.09,248.43A19.46,19.46,0,0,1,66.73,241L8.92,169.16a19.38,19.38,0,0,1-3.8-16.85L25.77,62.63A19.52,19.52,0,0,1,36.5,49.25l83.57-40a19.62,19.62,0,0,1,17.18,0l83.57,39.8a19.6,19.6,0,0,1,10.74,13.38l20.64,89.69A19.91,19.91,0,0,1,248.4,169l-57.8,71.85a20,20,0,0,1-15.36,7.43l-93.15.16Z" transform="translate(-4.55 -7.3)"/><path class="cls-2" d="M192.74,140.91a65.47,65.47,0,0,0-1.15-23.28A68.21,68.21,0,0,0,182.34,96l-6.77-8.75A78.07,78.07,0,0,0,168.79,81a66,66,0,0,0-34.51-13.71l-11.23-.16a82.71,82.71,0,0,0-8.92,1.32,63.72,63.72,0,0,0-32.71,18.5L75,95.49a5.64,5.64,0,0,0-.82,1.33,64.28,64.28,0,0,0-9.25,43.6l2.48,10.9A65.34,65.34,0,0,0,89,182.37a67.42,67.42,0,0,0,7.1,4.79l10.08,5a64.47,64.47,0,0,0,23.12,4.3,60.24,60.24,0,0,0,14.37-1.65,73.79,73.79,0,0,0,8.59-2.48l9.91-5a65.51,65.51,0,0,0,28.74-36.17Zm-57-3-7.26,3.47-7.27-3.47-1.82-7.76,5-6.28h8.09l4.95,6.28-1.65,7.76Zm43.11-17.18A52.34,52.34,0,0,1,180,137.45l-25.27-7.27a4.47,4.47,0,0,1-3.14-5.29,3.81,3.81,0,0,1,1-1.81l20-18a52.89,52.89,0,0,1,6.28,15.69Zm-14.2-25.6L143,110.52a4.39,4.39,0,0,1-5.78-1,3.63,3.63,0,0,1-.83-1.81L134.94,80.8a50.18,50.18,0,0,1,29.73,14.36Zm-47.9-13.54c1.82-.33,3.47-.66,5.28-1l-1.48,26.43a4.52,4.52,0,0,1-4.46,4.29,3.81,3.81,0,0,1-2-.5l-22-15.69a50.38,50.38,0,0,1,24.61-13.54ZM84.23,105.07l19.66,17.51a4.4,4.4,0,0,1,.49,6.11,3.24,3.24,0,0,1-2,1.32l-25.6,7.44a53.23,53.23,0,0,1,7.43-32.38Zm-4.46,44.76L106,145.37a4.46,4.46,0,0,1,4.63,3.47,4.75,4.75,0,0,1-.17,2.64h0l-10.07,24.28a52.07,52.07,0,0,1-20.65-25.93Zm60.29,32.87A53.7,53.7,0,0,1,128.5,184a56,56,0,0,1-16.69-2.64l13-23.62a4.34,4.34,0,0,1,5.29-1.16,7.26,7.26,0,0,1,2,1.82h0l12.72,23c-1.49.49-3.14.82-4.79,1.32Zm32.2-23a52.45,52.45,0,0,1-15.85,16L146,150.82a4.45,4.45,0,0,1,2.31-5.12,5.33,5.33,0,0,1,2.32-.49l26.42,4.46a33.18,33.18,0,0,1-4.79,10.07Z" transform="translate(-4.55 -7.3)"/><path class="cls-2" d="M120.81,67.57S124.5,35.5,144.42,25l4.64,2.89s-16.75,10.64-12.37,42.71Z" transform="translate(-4.55 -7.3)"/><rect class="cls-2" x="138.03" y="60.91" width="3.58" height="3.58" transform="translate(-9.58 5.4) rotate(-5.11)"/><rect class="cls-2" x="138.16" y="53.08" width="3.58" height="3.58" transform="translate(-0.48 -16.72) rotate(3.91)"/><rect class="cls-2" x="139.42" y="45.36" width="3.58" height="3.58" transform="translate(11.08 -40.11) rotate(14.02)"/><rect class="cls-2" x="142.19" y="38.27" width="3.58" height="3.58" transform="translate(25.63 -64.11) rotate(24.86)"/><rect class="cls-2" x="146.25" y="32.05" width="3.58" height="3.58" transform="translate(53.85 -96.03) rotate(40.95)"/><rect class="cls-2" x="115.83" y="60.28" width="3.58" height="3.58" transform="translate(8.78 -27.76) rotate(10.54)"/><rect class="cls-2" x="117.65" y="52.37" width="3.58" height="3.58" transform="translate(15.36 -38.53) rotate(16.24)"/><rect class="cls-2" x="120.53" y="44.65" width="3.58" height="3.58" transform="translate(26.3 -54.42) rotate(24.86)"/><rect class="cls-2" x="123.97" y="37.22" width="3.58" height="3.58" transform="translate(31.8 -64.95) rotate(30)"/><rect class="cls-2" x="128.38" y="30.49" width="3.58" height="3.58" transform="translate(41.97 -79.85) rotate(37.49)"/><rect class="cls-2" x="134.01" y="24.46" width="3.58" height="3.58" transform="translate(53.78 -95.64) rotate(45)"/><path class="cls-2" d="M173.39,87.25s27.28-17.26,48-8.37l.67,5.42s-18.8-6.36-41,17.19Z" transform="translate(-4.55 -7.3)"/><rect class="cls-2" x="187.33" y="97.2" width="3.58" height="3.58" transform="translate(124.41 -113.12) rotate(46)"/><rect class="cls-2" x="193.51" y="92.39" width="3.58" height="3.58" transform="translate(155.97 -127.14) rotate(55.03)"/><rect class="cls-2" x="200.31" y="88.52" width="3.58" height="3.58" transform="translate(194.52 -138.33) rotate(65.14)"/><rect class="cls-2" x="207.57" y="86.23" width="3.58" height="3.58" transform="translate(239.45 -143.72) rotate(75.97)"/><rect class="cls-2" x="214.95" y="85.48" width="3.58" height="3.58" transform="matrix(-0.04, 1, -1, -0.04, 307.2, -133.49)"/><rect class="cls-2" x="173.88" y="79.53" width="3.58" height="3.58" transform="translate(159.27 -119.2) rotate(61.65)"/><rect class="cls-2" x="181.19" y="75.98" width="3.58" height="3.58" transform="translate(179.73 -128.34) rotate(67.35)"/><rect class="cls-2" x="189" y="73.37" width="3.58" height="3.58" transform="translate(212.91 -135.46) rotate(75.97)"/><rect class="cls-2" x="196.95" y="71.39" width="3.58" height="3.58" transform="translate(235.78 -141.78) rotate(81.11)"/><rect class="cls-2" x="204.95" y="70.59" width="3.58" height="3.58" transform="translate(269.49 -143.37) rotate(88.6)"/><rect class="cls-2" x="213.18" y="71.19" width="3.58" height="3.58" transform="translate(305.88 -140.3) rotate(96.11)"/><path class="cls-2" d="M192.71,139.65s30.22,11.37,35.61,33.26l-3.93,3.8s-6.25-18.83-38.42-22.38Z" transform="translate(-4.55 -7.3)"/><rect class="cls-2" x="191.04" y="157.48" width="3.58" height="3.58" transform="translate(375.62 -13.71) rotate(98.95)"/><rect class="cls-2" x="198.6" y="159.51" width="3.58" height="3.58" transform="translate(411.11 13.18) rotate(107.98)"/><rect class="cls-2" x="205.78" y="162.62" width="3.58" height="3.58" transform="translate(445.79 51.39) rotate(118.09)"/><rect class="cls-2" x="211.98" y="167.02" width="3.58" height="3.58" transform="translate(474.86 101.27) rotate(128.92)"/><rect class="cls-2" x="217.03" y="172.47" width="3.58" height="3.58" transform="translate(493.45 184.25) rotate(145.01)"/><rect class="cls-2" x="197.04" y="136.1" width="3.58" height="3.58" transform="translate(402.42 7.22) rotate(114.6)"/><rect class="cls-2" x="204.27" y="139.79" width="3.58" height="3.58" transform="translate(427.71 27.81) rotate(120.3)"/><rect class="cls-2" x="211.06" y="144.46" width="3.58" height="3.58" transform="translate(455.8 65.25) rotate(128.92)"/><rect class="cls-2" x="217.43" y="149.61" width="3.58" height="3.58" transform="translate(475.91 91.87) rotate(134.07)"/><rect class="cls-2" x="222.89" y="155.51" width="3.58" height="3.58" transform="translate(493.9 133.49) rotate(141.55)"/><rect class="cls-2" x="227.37" y="162.44" width="3.58" height="3.58" transform="translate(505.59 180) rotate(149.07)"/><path class="cls-2" d="M162.09,186.65s9.31,30.91-4.81,48.49l-5.4-.82s11.17-16.4-5.55-44.11Z" transform="translate(-4.55 -7.3)"/><rect class="cls-2" x="144.78" y="196.87" width="3.58" height="3.58" transform="translate(365.5 296.25) rotate(151.56)"/><rect class="cls-2" x="147.76" y="204.11" width="3.58" height="3.58" transform="translate(354.48 343.08) rotate(160.59)"/><rect class="cls-2" x="149.65" y="211.7" width="3.58" height="3.58" transform="translate(330.86 392.38) rotate(170.7)"/><rect class="cls-2" x="149.92" y="219.3" width="3.58" height="3.58" transform="translate(292.9 438.85) rotate(-178.47)"/><rect class="cls-2" x="148.66" y="226.62" width="3.58" height="3.58" transform="translate(220.15 484.34) rotate(-162.38)"/><rect class="cls-2" x="165.41" y="188.65" width="3.58" height="3.58" transform="translate(367.86 331.84) rotate(167.21)"/><rect class="cls-2" x="166.87" y="196.64" width="3.58" height="3.58" transform="translate(355.97 367.21) rotate(172.91)"/><rect class="cls-2" x="167.28" y="204.86" width="3.58" height="3.58" transform="translate(328.01 410.45) rotate(-178.47)"/><rect class="cls-2" x="167.06" y="213.05" width="3.58" height="3.58" transform="translate(307.05 440.55) rotate(-173.33)"/><rect class="cls-2" x="165.69" y="220.98" width="3.58" height="3.58" transform="translate(270.82 472.43) rotate(-165.84)"/><rect class="cls-2" x="162.9" y="228.75" width="3.58" height="3.58" transform="translate(228.05 498.29) rotate(-158.33)"/><path class="cls-2" d="M107.9,192.1s-17.66,27-40.2,27.54L64.85,215S84.59,213,95,182.33Z" transform="translate(-4.55 -7.3)"/><rect class="cls-2" x="86.93" y="186.17" width="3.58" height="3.58" transform="translate(97.9 388.04) rotate(-158.52)"/><rect class="cls-2" x="83.31" y="193.11" width="3.58" height="3.58" transform="matrix(-0.86, -0.51, 0.51, -0.86, 54.94, 398.72)"/><rect class="cls-2" x="78.72" y="199.45" width="3.58" height="3.58" transform="translate(6.08 399.11) rotate(-139.39)"/><rect class="cls-2" x="73.07" y="204.54" width="3.58" height="3.58" transform="translate(-44.39 386.17) rotate(-128.55)"/><rect class="cls-2" x="66.66" y="208.29" width="3.58" height="3.58" transform="translate(-104.08 346.31) rotate(-112.47)"/><rect class="cls-2" x="106.5" y="196.66" width="3.58" height="3.58" transform="translate(70.29 414.74) rotate(-142.87)"/><rect class="cls-2" x="101.33" y="202.92" width="3.58" height="3.58" transform="translate(35.04 417.64) rotate(-137.17)"/><rect class="cls-2" x="95.3" y="208.53" width="3.58" height="3.58" transform="translate(-11.43 410.03) rotate(-128.55)"/><rect class="cls-2" x="88.89" y="213.64" width="3.58" height="3.58" transform="matrix(-0.55, -0.83, 0.83, -0.55, -43.76, 402.45)"/><rect class="cls-2" x="81.94" y="217.69" width="3.58" height="3.58" transform="translate(-81.6 383.44) rotate(-115.93)"/><rect class="cls-2" x="74.21" y="220.56" width="3.58" height="3.58" transform="translate(-115.52 357.38) rotate(-108.41)"/><path class="cls-2" d="M68.73,154.21s-32.24,1.79-46-16.07l2.06-5.06s13.32,14.71,44.18,5Z" transform="translate(-4.55 -7.3)"/><rect class="cls-2" x="58.92" y="134.51" width="3.58" height="3.58" transform="translate(-60.05 222.6) rotate(-104.84)"/><rect class="cls-2" x="51.18" y="135.71" width="3.58" height="3.58" transform="translate(-83 196.84) rotate(-95.82)"/><rect class="cls-2" x="43.36" y="135.77" width="3.58" height="3.58" transform="translate(-99.95 164.98) rotate(-85.71)"/><rect class="cls-2" x="35.91" y="134.23" width="3.58" height="3.58" transform="translate(-108 129.62) rotate(-74.87)"/><rect class="cls-2" x="29.09" y="131.29" width="3.58" height="3.58" transform="matrix(0.52, -0.86, 0.86, 0.52, -103.49, 83.22)"/><rect class="cls-2" x="62.06" y="156.5" width="3.58" height="3.58" transform="translate(-99.88 212.6) rotate(-89.19)"/><rect class="cls-2" x="53.95" y="156.04" width="3.58" height="3.58" transform="translate(-111.94 188.03) rotate(-83.5)"/><rect class="cls-2" x="45.85" y="154.51" width="3.58" height="3.58" transform="translate(-120.22 154.21) rotate(-74.87)"/><rect class="cls-2" x="37.95" y="152.37" width="3.58" height="3.58" transform="matrix(0.35, -0.94, 0.94, 0.35, -123.19, 130.74)"/><rect class="cls-2" x="30.57" y="149.17" width="3.58" height="3.58" transform="translate(-120.85 102) rotate(-62.25)"/><rect class="cls-2" x="23.67" y="144.64" width="3.58" height="3.58" transform="translate(-113.34 75.37) rotate(-54.73)"/><path class="cls-2" d="M73.6,99.11S51,76.08,55.3,54l5.16-1.79S58.2,71.87,85.89,88.62Z" transform="translate(-4.55 -7.3)"/><rect class="cls-2" x="79.96" y="79.47" width="3.58" height="3.58" transform="translate(-35.82 96.61) rotate(-56.16)"/><rect class="cls-2" x="73.96" y="74.45" width="3.58" height="3.58" transform="translate(-36.21 72.6) rotate(-47.14)"/><rect class="cls-2" x="68.75" y="68.61" width="3.58" height="3.58" transform="translate(-32.72 49.37) rotate(-37.03)"/><rect class="cls-2" x="64.98" y="62" width="3.58" height="3.58" transform="translate(-25.85 28.72) rotate(-26.19)"/><rect class="cls-2" x="62.69" y="54.94" width="3.58" height="3.58" transform="translate(-13.5 4.89) rotate(-10.1)"/><rect class="cls-2" x="65.52" y="96.34" width="3.58" height="3.58" transform="translate(-52.16 59.95) rotate(-40.51)"/><rect class="cls-2" x="60.52" y="89.95" width="3.58" height="3.58" transform="matrix(0.82, -0.57, 0.57, 0.82, -45.77, 44.69)"/><rect class="cls-2" x="56.32" y="82.86" width="3.58" height="3.58" transform="translate(-35.95 27.04) rotate(-26.19)"/><rect class="cls-2" x="52.71" y="75.51" width="3.58" height="3.58" transform="translate(-28.68 17.43) rotate(-21.05)"/><rect class="cls-2" x="50.24" y="67.85" width="3.58" height="3.58" transform="translate(-19.43 6.85) rotate(-13.56)"/><rect class="cls-2" x="49.09" y="59.68" width="3.58" height="3.58" transform="translate(-10.75 -1.59) rotate(-6.05)"/></svg>